<svg id="Calque_1" data-name="Calque 1" xmlns="http://www.w3.org/2000/svg" viewBox="0 0 533.15 540.62"><title>logo</title><g id="Calque_2" data-name="Calque 2"><path d="M405.62,244.43c.09,1-9.32,3.62-28.13,8.94-5.87,1.66-8.81,2.47-11.54,3.22-6.9,1.88-9.14,2.4-15.12,4.21-19,5.77-34.85,11.54-41.8,14.07-15.1,5.51-24.44,9.39-28.86,11.26-9.25,3.91-17,7.5-22.89,10.31a109.17,109.17,0,0,0-6.85,23.14c-2.1,11.75-1.76,24.08-1.65,30.67.09,5.31-1.18,32.41-1.19,35-.06,12.48.36,22.68.74,29.42a58.94,58.94,0,0,0,28.23,6.65c10.52-.07,16.92.53,31.28.05,2.43-.08,3.55-.14,5.68-.23s3.23-.11,3.86-.13c5.83-.21,12.42-.68,12.42-.77s-5.34.1-5.34.15a36.35,36.35,0,0,0,5.34-.15c.95-.08,1.87-.19,2.74-.33,0,0,3-.29,6.35-.45,8.9-.41,14.57-.07,26.54.42,7.25.3,17.93.7,31.18,1l5.31,3.75.66,70.66-4,3.75-136.67-.41a109.67,109.67,0,0,1-21.9-3.34c-5.87-1.52-19.33-5.12-31.18-13.75-13.45-9.81-19.06-21.91-25.21-35.65-9.78-21.82-11.82-40.23-13.27-54.4-1.56-15.17-3.9-36.84,1.77-62.95,3.61-16.64,9-28.49,13.49-38.35a62.33,62.33,0,0,1,6.9-12.19,65.62,65.62,0,0,1,20.74-17.82c12.74-7.44,24.56-9.69,36-11.88,9.47-1.81,19.32-2.69,20.12-2.76,4.12-.36,8.1-.58,12.8-.83h0c4.79-.42,9-.56,11.61-.61l2.56,0C310.17,244,405.15,239.73,405.62,244.43Z" transform="translate(-20.89 -134.27)" style="fill:#213da5"/><path d="M532.77,134.27c-208.11.71-281.23.93-292.62.93h-20.3a261,261,0,0,0-35.08,6.46c-11.62,3-20.35,6.05-24,7.38a217.7,217.7,0,0,0-42.46,20.31,198.12,198.12,0,0,0-36,28.62c-22.48,23-32.91,46.3-39.69,61.84C30,288.61,26.24,312.54,24.15,326.27c-6,39.73-2.3,70.6,0,88.62,2.19,17.08,5,37.9,14.77,63.69,5,13.08,11.58,30.13,25.85,48.93,13.76,18.13,27.7,28.72,39.69,37.84,9.9,7.53,24.43,18.43,46.16,27.69A213.9,213.9,0,0,0,194.92,606c15.89,2.91,26.86,3.2,56.31,3.69,37.35.62,56,.93,66.46.92,42.46,0,42.73-.72,90.46-.92,9.28,0,7.91,0,71.08,0h47.08l9.23-4.62c-.2-7.44-.67-17.94-1.85-30.46-1.71-18.18-3.89-41.47-12-69.23A259.53,259.53,0,0,0,492.15,438c-13.44-21.5-26.76-35.51-38.77-48a388.06,388.06,0,0,0-53.53-46.16C367,320.3,338.3,307.48,322.31,300.43c-4.27-1.88-12.56-7.36-24.93-10.16a82.14,82.14,0,0,0-23.07-1.84l-21.23,10.15a205.6,205.6,0,0,0-6.46,21.23c-1.28,5.16-1.75,66.9-3.7,84.93-.21,2-.77,6.48,1.85,10.15,3.24,4.54,9.53,5.23,12.92,5.54a427.27,427.27,0,0,0,58.16.92c8.21-.58,8.06-.63,11.15-.77,8.24-.38,17.69-.11,36.23.46,2.61.08,9.7,0,19.08,0h0l4.92,3.7q.31,34.77.62,69.53l-5.54,3.7c-2.6,0-6.95,0-12.31,0-34.87.06-69.74-.49-104.62-.62-8,0-16.91-.05-28.3-3.08-6.18-1.63-17.93-4.87-28.93-13.53-12.51-9.86-17.74-21.78-23.38-35.08-9.17-21.62-11-39.94-12.31-53.54A228.87,228.87,0,0,1,174.31,333a172,172,0,0,1,12.31-40.61c3.48-7.81,6.39-12.64,10.46-17.23,6.94-7.85,14.39-11.74,20.3-14.77,10.6-5.42,19.47-7.36,28.31-9.23,11.38-2.41,19.83-2.91,33.23-3.69,12.63-.75,22.22-.69,30.77-.62,5.11,0,5.71.12,33.85,1.23,20.33.8,30.78,1.18,44.31,0,2.21-.19,6.2.26,11.07-1.23a34.06,34.06,0,0,0,16-11.08q17.08-13.45,34.46-27.69,21.89-17.94,42.47-35.69Z" transform="translate(-20.89 -134.27)" style="fill:#16d311"/><path d="M328.77,282.89h192A30.84,30.84,0,0,1,531.85,294a30.16,30.16,0,0,1,3.69,12.92c.81,11.44,1.28,76.35.92,165.23-3.8-8.57-9.25-20.07-16.61-33.23C511.54,424,502.23,407.37,486.62,389c-13.23-15.52-24.86-25.07-41.54-38.77-11.36-9.32-23.26-19-40.62-29.53-10.42-6.32-19.87-11-38.77-20.31C350.43,292.9,337.66,287,328.77,282.89Z" transform="translate(-20.89 -134.27)" style="fill:#213da5"/><path d="M566.92,410.81" transform="translate(-20.89 -134.27)" style="fill:#951a21"/><path d="M637.08,386.81" transform="translate(-20.89 -134.27)" style="fill:#394da1"/><path d="M577.38,427.43" transform="translate(-20.89 -134.27)" style="fill:#394da1"/></g><g id="Calque_3" data-name="Calque 3"><text transform="translate(35.5 527.38)" style="font-size:49px;fill:#213da5;font-family:Rockwell-ExtraBold, Rockwell Extra Bold;font-weight:800">GENIUS CONCEPT</text></g></svg>