<svg id="_x33_0" enable-background="new 0 0 64 64" height="512" viewBox="0 0 64 64" width="512" xmlns="http://www.w3.org/2000/svg"><g><g><g><path d="m54 15c-2.757 0-5-2.243-5-5s2.243-5 5-5 5 2.243 5 5-2.243 5-5 5z" fill="#f0bc5e"/></g></g><g><path d="m47.681 16h-4.681v5h6v-2.784c-.471-.701-.917-1.442-1.319-2.216z" fill="#f0bc5e"/></g><g><path d="m31 12h4v8h-4z" fill="#f0bc5e"/></g><g><path d="m22 16c-.552 0-1-.448-1-1h-2c0 1.654 1.346 3 3 3s3-1.346 3-3h-2c0 .552-.448 1-1 1z"/><path d="m39 45c1.654 0 3-1.346 3-3s-1.346-3-3-3-3 1.346-3 3 1.346 3 3 3zm0-4c.552 0 1 .448 1 1s-.448 1-1 1-1-.448-1-1 .448-1 1-1z"/><path d="m54 1c-3.91 0-7.236 2.51-8.475 6h-16.525c0-3.309-2.691-6-6-6h-7.488c-8.002 0-14.512 6.51-14.512 14.512 0 5.036 2.55 9.637 6.82 12.305l1.18.737v4.547c-2.279.465-4 2.485-4 4.899v4c0 3.031.732 5.889 2 8.434v12.566h28c1.103 0 2-.897 2-2h17c2.757 0 5-2.243 5-5v-7.101c2.279-.465 4-2.484 4-4.899v-34c0-4.963-4.037-9-9-9zm-45.119 25.121c-3.683-2.301-5.881-6.267-5.881-10.609 0-6.9 5.612-12.512 12.512-12.512h7.488c2.206 0 4 1.794 4 4s-1.794 4-4 4h-2c-1.103 0-2-.897-2-2s.897-2 2-2v-2c-2.206 0-4 1.794-4 4 0 .732.212 1.409.556 2h-2.556c-1.103 0-2-.903-2-2.092 0-.52.205-1.006.578-1.368s.876-.567 1.411-.54l.027-2c-1.069-.035-2.07.363-2.833 1.106s-1.183 1.738-1.183 2.879c0 .313.044.615.112.907-1.278.98-2.065 2.484-2.11 4.12-2.235.17-4.002 2.043-4.002 4.321 0 1.356.647 2.652 1.733 3.467l2.267 1.7v2.696zm16.119-5.739v2.618h-.764c-.998 0-1.896-.555-2.342-1.447l-1.789.895c.789 1.573 2.372 2.552 4.131 2.552h.522c-.582 1.892-2.23 3.311-4.307 3.5l-5.543.504.182 1.992 1.91-.173v2.884c-.47.794-1.302 1.293-2.236 1.293h-.789c-.721-.953-1.762-1.652-2.974-1.899v-10.601l-3.066-2.3c-.586-.438-.935-1.137-.935-1.867 0-1.286 1.047-2.333 2.333-2.333h1.667v-1.838c0-.949.396-1.835 1.068-2.466.731.796 1.77 1.304 2.932 1.304h8c.628 0 1.234-.098 1.804-.278.753 1.466 1.988 4.19 2.173 6.672zm8 4.618v2h-6.922c.35-.615.611-1.286.762-2zm-10 36h-14v-7.381c3.286 4.233 8.312 7.032 14 7.33zm0-2.051c-8.908-.522-16-7.913-16-16.949v-4c0-1.654 1.346-3 3-3s3 1.346 3 3v4c0 5.728 4.402 10.442 10 10.949zm0-8.008c-4.493-.499-8-4.316-8-8.941v-4c0-.347-.036-.687-.104-1.014 1.312-.037 2.518-.607 3.353-1.571 2.992 2.356 4.751 5.949 4.751 9.796zm12 10.059h-10v-1c0-1.654 1.346-3 3-3h4c1.654 0 3 1.346 3 3zm-8-8c1.302 0 2.402.839 2.816 2h-1.816c-1.13 0-2.162.391-3 1.026v-3.026zm-2-2v-2h4.82l-.439 2.631c-.711-.39-1.515-.631-2.381-.631zm11.899 8c-.465-2.279-2.484-4-4.899-4h-.101c-.133-.652-.393-1.259-.753-1.792l.701-4.208h14.306l1.667 10zm20.101-3c0 1.654-1.346 3-3 3h-4.153l-1.667-10h8.82zm4-12c0 1.654-1.346 3-3 3h-33v-1.789c0-2.983-.918-5.831-2.56-8.211h38.56zm0-9h-40.25c-.539-.539-1.121-1.039-1.75-1.494v-2.866l1.634-.148c1.418-.129 2.696-.669 3.732-1.492h10.634v-6h-8v-1.382l2-1v-.618c0-3.032-1.524-6.45-2.419-8.197.941-.704 1.668-1.675 2.069-2.803h16.409c-.037.329-.059.662-.059 1 0 1.71.442 3.401 1.108 5h-7.108c-1.103 0-2 .897-2 2v14c0 1.103.897 2 2 2h14c1.103 0 2-.897 2-2v-6.559c.996-.924 3.967-3.851 6-7.579zm-13.922-18c2.031 3.661 4.938 6.529 5.922 7.441v6.559h-14v-14zm6.922 5.629c-1.857-1.813-7-7.311-7-12.629 0-3.859 3.141-7 7-7s7 3.141 7 7c0 5.318-5.143 10.816-7 12.629z"/><path d="m31 31h2v2h-2z"/><path d="m27 31h2v2h-2z"/><path d="m31 11h10v2h-10z"/><path d="m31 15h4v2h-4z"/><path d="m31 19h4v2h-4z"/></g></g></svg>