<svg height="400pt" viewBox="0 -56 496 496" width="400pt" fill="#000" xmlns="http://www.w3.org/2000/svg"><path d="m456 0h-416c-22.054688 0-40 17.945312-40 40v256c0 22.054688 17.945312 40 40 40h104v32h-32v16h272v-16h-32v-32h104c22.054688 0 40-17.945312 40-40v-256c0-22.054688-17.945312-40-40-40zm-416 16h416c13.230469 0 24 10.769531 24 24v216h-344v-21.785156l-20.03125-6.613282c-1.929688-6.800781-4.664062-13.328124-7.953125-19.601562h179.984375v-176h-240v125.289062c-1.207031-.394531-2.375-.90625-3.609375-1.257812l-6.605469-20.03125h-21.785156v-96c0-13.230469 10.769531-24 24-24zm-24 184c30.878906 0 56 25.128906 56 56h-56zm0-15.945312v-32.054688h10.214844l5.753906 17.433594 4.351562 1.023437c9.09375 2.160157 17.769532 5.757813 25.777344 10.695313l3.804688 2.351562 16.417968-8.265625 14.449219 14.457031-8.265625 16.417969 2.34375 3.808594c4.945313 8 8.535156 16.671875 10.6875 25.773437l1.03125 4.351563 17.433594 5.738281v10.214844h-32c0-39.671875-32.640625-71.894531-72-71.945312zm69.449219-28.300782-18.855469 9.492188c-.839844-.476563-1.738281-.8125-2.59375-1.261719v-115.984375h208v144h-158.488281l2.746093-5.457031zm250.550781 212.246094h-176v-32h176zm120-48h-416c-13.230469 0-24-10.769531-24-24v-24h464v24c0 13.230469-10.769531 24-24 24zm0 0"/><path d="m384 288h16v16h-16zm0 0"/><path d="m416 288h16v16h-16zm0 0"/><path d="m448 288h16v16h-16zm0 0"/><path d="m272 224h16v16h-16zm0 0"/><path d="m240 224h16v16h-16zm0 0"/><path d="m176 224h48v16h-48zm0 0"/><path d="m448 72h-16v56h-16v-96h-16v96h-16v-32h-16v32h-16v-72h-16v72h-16v-96h-16v112h144zm0 0"/><path d="m448 160h-144v80h144zm-16 64h-112v-48h112zm0 0"/><path d="m80 64h16v16h-16zm0 0"/><path d="m112 64h144v16h-144zm0 0"/><path d="m80 96h176v16h-176zm0 0"/><path d="m80 128h32v16h-32zm0 0"/><path d="m128 128h128v16h-128zm0 0"/><path d="m128 160h128v16h-128zm0 0"/></svg>