<?xml version="1.0"?>
<svg xmlns="http://www.w3.org/2000/svg" viewBox="0 0 64 64" width="512" height="512"><g id="Truck"><path d="M61,41H56V28a1,1,0,0,0-1-1H37a1,1,0,0,0-1,1V41H3a1,1,0,0,0-1,1V52a1,1,0,0,0,1,1H9a7,7,0,0,0,14,0H43a7,7,0,0,0,14,0h4a1,1,0,0,0,1-1V42A1,1,0,0,0,61,41ZM16,58a5,5,0,1,1,5-5A5.006,5.006,0,0,1,16,58Zm6.7-7A7,7,0,0,0,9.3,51H4V43H36v8ZM50,58a5,5,0,1,1,5-5A5.006,5.006,0,0,1,50,58Zm6.7-7A7,7,0,0,0,43.3,51H38V29H54V42a1,1,0,0,0,1,1h5v1H58v2h2v5Z"/><path d="M52,30H42a1,1,0,0,0-1,1V41a1,1,0,0,0,1,1H52a1,1,0,0,0,1-1V31A1,1,0,0,0,52,30ZM51,40H43V32h8Z"/><circle cx="50" cy="53" r="2"/><circle cx="16" cy="53" r="2"/><path d="M3,40H33a1,1,0,0,0,1-1V15a1,1,0,0,0-1-1H3a1,1,0,0,0-1,1V39A1,1,0,0,0,3,40ZM4,16H32V38H4Z"/><path d="M26,24h-.757l.535-.535a1,1,0,0,0,0-1.414L22.95,19.222a1,1,0,0,0-1.414,0L21,19.757V19a1,1,0,0,0-1-1H16a1,1,0,0,0-1,1v.757l-.536-.535a1.029,1.029,0,0,0-1.414,0l-2.828,2.829a1,1,0,0,0,0,1.414l.535.535H10a1,1,0,0,0-1,1v4a1,1,0,0,0,1,1h.757l-.535.535a1,1,0,0,0,0,1.414l2.828,2.829a1,1,0,0,0,1.414,0L15,34.243V35a1,1,0,0,0,1,1h4a1,1,0,0,0,1-1v-.757l.536.535a1.029,1.029,0,0,0,1.414,0l2.828-2.829a1,1,0,0,0,0-1.414L25.243,30H26a1,1,0,0,0,1-1V25A1,1,0,0,0,26,24Zm-1,4H23.651a1,1,0,0,0-.943.667,5.062,5.062,0,0,1-.2.486,1,1,0,0,0,.2,1.136l.954.953-1.414,1.415-.954-.954a1,1,0,0,0-1.137-.2,5.044,5.044,0,0,1-.485.2,1,1,0,0,0-.667.943V34H17V32.651a1,1,0,0,0-.667-.943,5.044,5.044,0,0,1-.485-.2,1,1,0,0,0-1.137.2l-.954.954-1.414-1.415.954-.953a1,1,0,0,0,.2-1.136,5.062,5.062,0,0,1-.2-.486A1,1,0,0,0,12.349,28H11V26h1.349a1,1,0,0,0,.943-.667,5.062,5.062,0,0,1,.2-.486,1,1,0,0,0-.2-1.136l-.954-.953,1.414-1.415.954.954a1,1,0,0,0,1.137.2,5.044,5.044,0,0,1,.485-.2A1,1,0,0,0,17,21.349V20h2v1.349a1,1,0,0,0,.667.943,5.044,5.044,0,0,1,.485.2,1,1,0,0,0,1.137-.2l.954-.954,1.414,1.415-.954.953a1,1,0,0,0-.2,1.136,5.062,5.062,0,0,1,.2.486,1,1,0,0,0,.943.667H25Z"/><path d="M18,23a4,4,0,1,0,4,4A4,4,0,0,0,18,23Zm0,6a2,2,0,1,1,2-2A2,2,0,0,1,18,29Z"/></g></svg>
