<?xml version="1.0"?>
<svg xmlns="http://www.w3.org/2000/svg" viewBox="0 0 512 512" width="512" height="512"><g id="Outline"><path d="M262.68,19.594c-2.953-4.485-10.407-4.492-13.36.008l-57.976,88,13.359,8.8L256,38.539,336.055,160H208v16H346.6l58,88H224v16H415.147l58,88H200v16H488a8,8,0,0,0,6.68-12.406Z"/><path d="M43.664,331.6l-26.344,40A8,8,0,0,0,24,384H72V368H38.852l18.171-27.6Z"/><rect x="244.73" y="80.221" width="14.539" height="15.996" transform="translate(39.731 250.171) rotate(-56.636)"/><rect x="205.159" y="117.295" width="44.808" height="15.996" transform="translate(-2.231 246.446) rotate(-56.636)"/><path d="M226.578,432.1A96.433,96.433,0,0,1,184,352V336a31.915,31.915,0,0,0,3-63.7l12.59-37.772A7.992,7.992,0,0,0,192,224h-8V200a8,8,0,0,0-8-8h-9.757l-3.251-13.008,19.07,4.766a7.878,7.878,0,0,0,6.86-1.453A7.994,7.994,0,0,0,192,176V128a8,8,0,0,0-9.938-7.758l-19.07,4.766,4.766-19.07A8,8,0,0,0,160,96H112a8,8,0,0,0-7.758,9.938l4.766,19.07-19.07-4.766A8,8,0,0,0,80,128v48a8,8,0,0,0,9.938,7.758l19.07-4.766L105.757,192H96a8,8,0,0,0-8,8v24H80a7.992,7.992,0,0,0-7.586,10.531L85,272.3A31.915,31.915,0,0,0,88,336v16a96.433,96.433,0,0,1-42.578,80.1A32,32,0,0,0,48,496H224a32,32,0,0,0,2.578-63.9ZM91.1,240h89.8l-10.664,32H101.766Zm34.554-77.656a7.974,7.974,0,0,0-7.594-2.1L96,165.75v-27.5l22.062,5.508a7.994,7.994,0,0,0,9.7-9.7L122.25,112h27.5l-5.508,22.062a7.994,7.994,0,0,0,9.7,9.7L176,138.25v27.5l-22.062-5.508a7.994,7.994,0,0,0-9.7,9.7L149.75,192h-27.5l5.508-22.062A7.982,7.982,0,0,0,125.656,162.344ZM104,208h64v16H104ZM72,304a16.021,16.021,0,0,1,16-16h96a16,16,0,0,1,0,32H88A16.021,16.021,0,0,1,72,304ZM224,480H48a16,16,0,0,1,0-32,8.011,8.011,0,0,0,4.438-1.344l1.406-.937A112.406,112.406,0,0,0,104,352V336h64v16a112.207,112.207,0,0,0,33.628,80H88v16H224a16,16,0,0,1,0,32Z"/></g></svg>
