<?xml version="1.0" encoding="iso-8859-1"?>
<!-- Generator: Adobe Illustrator 21.0.0, SVG Export Plug-In . SVG Version: 6.00 Build 0)  -->
<svg xmlns="http://www.w3.org/2000/svg" xmlns:xlink="http://www.w3.org/1999/xlink" version="1.1" id="Capa_1" x="0px" y="0px" viewBox="0 0 512 512" style="enable-background:new 0 0 512 512;" xml:space="preserve" width="512" height="512">
<g>
	<g>
		<path d="M460.935,228.854c-2.428-3.358-7.115-4.111-10.472-1.685c-3.357,2.427-4.111,7.115-1.685,10.472    C456.119,247.798,460,259.814,460,272.393v165.215C460,470.356,433.356,497,400.607,497H192.31c-4.143,0-7.5,3.357-7.5,7.5    s3.357,7.5,7.5,7.5h208.298C441.628,512,475,478.628,475,437.607V272.393C475,256.639,470.137,241.584,460.935,228.854z"/>
		<path d="M160,497h-48.607C78.644,497,52,470.356,52,437.607V272.393C52,239.644,78.644,213,111.393,213h289.215    c9.518,0,18.605,2.181,27.011,6.482c3.689,1.886,8.207,0.428,10.094-3.26s0.427-8.207-3.26-10.094    c-9.688-4.957-20.513-7.735-31.452-8.09V177.5c0-4.143-3.357-7.5-7.5-7.5H385V56.5C385,25.346,359.654,0,328.5,0h-145    C152.346,0,127,25.346,127,56.5V128c0,4.143,3.357,7.5,7.5,7.5s7.5-3.357,7.5-7.5V56.5c0-22.883,18.617-41.5,41.5-41.5h145    c22.883,0,41.5,18.617,41.5,41.5V170h-45V76.14C325,67.24,317.76,60,308.86,60H203.14C194.24,60,187,67.24,187,76.14V170h-45    v-10.667c0-4.143-3.357-7.5-7.5-7.5s-7.5,3.357-7.5,7.5V170h-10.5c-4.143,0-7.5,3.357-7.5,7.5v20.538    c-39.918,1.267-72,34.135-72,74.354v165.215C37,478.628,70.372,512,111.393,512H160c4.143,0,7.5-3.357,7.5-7.5    S164.143,497,160,497z M388,185v13h-81v-13H388z M202,76.14c0-0.628,0.512-1.14,1.14-1.14H308.86c0.628,0,1.14,0.512,1.14,1.14    V170h-10.5c-4.143,0-7.5,3.357-7.5,7.5V198h-72v-20.5c0-4.143-3.357-7.5-7.5-7.5H202V76.14z M124,185h81v13h-81V185z"/>
		<path d="M391.298,288.13c-37.746-31.921-85.796-49.5-135.299-49.5c-49.51,0-97.56,17.576-135.298,49.49    c-4.59,3.881-7.393,9.316-7.894,15.306c-0.501,5.988,1.361,11.814,5.242,16.403c3.88,4.589,9.314,7.392,15.304,7.893    c5.988,0.5,11.815-1.36,16.404-5.241c29.626-25.053,67.356-38.851,106.241-38.851c38.877,0,76.608,13.801,106.243,38.861    c4.058,3.431,9.214,5.319,14.521,5.319c6.64-0.002,12.904-2.907,17.187-7.973c3.881-4.589,5.742-10.414,5.241-16.403    S395.887,292.01,391.298,288.13z M382.496,310.152c-1.428,1.688-3.519,2.657-5.734,2.658c-1.248,0-3.101-0.308-4.835-1.773    c-32.339-27.347-73.509-42.407-115.928-42.407c-42.427,0-83.597,15.057-115.927,42.397c-1.529,1.293-3.473,1.918-5.468,1.746    c-1.996-0.167-3.809-1.101-5.102-2.63c-1.294-1.53-1.914-3.472-1.747-5.469c0.167-1.996,1.102-3.808,2.631-5.102    c35.034-29.627,79.644-45.943,125.612-45.943c45.961,0,90.571,16.32,125.613,45.953v0.001c1.53,1.293,2.464,3.104,2.631,5.101    S383.79,308.623,382.496,310.152z"/>
		<path d="M255.999,338.819c25.842,0,50.921,9.176,70.618,25.838c4.057,3.433,9.213,5.322,14.519,5.322h0.006    c6.638,0,12.901-2.904,17.186-7.969c3.882-4.589,5.744-10.414,5.244-16.403c-0.5-5.988-3.302-11.425-7.891-15.306v-0.001    c-27.812-23.525-63.212-36.481-99.682-36.481c-36.479,0-71.88,12.953-99.682,36.473c-9.472,8.013-10.658,22.238-2.645,31.711    c8.014,9.47,22.239,10.655,31.709,2.645C205.069,347.992,230.147,338.819,255.999,338.819z M165.124,352.314    c-2.672-3.157-2.276-7.899,0.881-10.571c25.098-21.231,57.059-32.924,89.994-32.924c32.927,0,64.888,11.696,89.994,32.935    c3.157,2.67,3.553,7.412,0.883,10.569c-1.429,1.688-3.519,2.656-5.736,2.656c-0.001,0-0.001,0-0.002,0    c-1.248,0-3.1-0.308-4.832-1.774c-22.402-18.949-50.923-29.386-80.307-29.386c-29.395,0-57.914,10.433-80.305,29.376    C172.538,355.865,167.794,355.471,165.124,352.314z"/>
		<path d="M304.671,413.149c6.637,0,12.899-2.903,17.184-7.965c8.014-9.471,6.829-23.695-2.641-31.71    c-17.628-14.919-40.078-23.135-63.215-23.135c-23.143,0-45.597,8.216-63.225,23.135c-9.47,8.015-10.654,22.239-2.64,31.711    c8.014,9.468,22.238,10.651,31.71,2.639c9.514-8.051,21.643-12.484,34.154-12.484c12.505,0,24.631,4.434,34.145,12.485    C294.201,411.259,299.36,413.149,304.671,413.149z M212.156,396.374c-3.159,2.672-7.901,2.277-10.571-0.879    c-2.672-3.157-2.277-7.899,0.879-10.571c14.924-12.629,33.936-19.584,53.535-19.584c19.593,0,38.602,6.955,53.525,19.584    c3.156,2.672,3.551,7.414,0.879,10.571c-1.427,1.687-3.517,2.654-5.732,2.654c-1.25,0-3.104-0.308-4.838-1.774    c-12.218-10.341-27.785-16.035-43.834-16.035C239.943,380.34,224.373,386.034,212.156,396.374z"/>
		<path d="M232.203,448.394c0,12.958,10.542,23.5,23.5,23.5s23.5-10.542,23.5-23.5s-10.542-23.5-23.5-23.5    S232.203,435.436,232.203,448.394z M264.203,448.394c0,4.687-3.813,8.5-8.5,8.5s-8.5-3.813-8.5-8.5s3.813-8.5,8.5-8.5    S264.203,443.707,264.203,448.394z"/>
	</g>
</g>















</svg>
